<svg width="24" height="24" viewBox="0 0 24 24" fill="none" xmlns="http://www.w3.org/2000/svg">
<path d="M18.5 12.0044C18.4934 12.2103 18.4472 12.3985 18.3615 12.569C18.2757 12.7396 18.1438 12.9043 17.9658 13.0631L8.05251 21.6206C7.7689 21.8735 7.41933 22 7.00381 22C6.72679 22 6.47615 21.9412 6.2519 21.8236C6.02106 21.7059 5.83968 21.5471 5.70776 21.3472C5.56925 21.1472 5.5 20.9237 5.5 20.6767C5.5 20.312 5.655 19.9915 5.96499 19.715L14.9285 12.0132L5.96499 4.3026C5.655 4.02029 5.5 3.69975 5.5 3.34098C5.5 3.08807 5.56926 2.86164 5.70776 2.66167C5.83968 2.4617 6.02106 2.3029 6.2519 2.18527C6.47616 2.06176 6.72679 2 7.00381 2C7.41933 2 7.7689 2.12939 8.05251 2.38818L17.9658 10.9457C18.1504 11.1045 18.2856 11.2692 18.3714 11.4398C18.4571 11.6162 18.5 11.8044 18.5 12.0044Z" fill="#202117"/>
</svg>
