<svg width="24" height="24" viewBox="0 0 24 24" fill="none" xmlns="http://www.w3.org/2000/svg">
<path d="M12.4271 22C13.6363 22 14.6148 21.0201 14.6148 19.8123H10.238C10.238 21.0215 11.2179 22 12.4257 22H12.4271Z" fill="#202117"/>
<path d="M20.4416 15.5679L19.409 14.2034V10.7922C19.409 7.30409 16.8396 4.40564 13.4939 3.89004V3.06822C13.4939 2.47856 13.0153 2 12.4257 2C11.836 2 11.3575 2.47856 11.3575 3.06822V3.89004C8.01321 4.40564 5.44377 7.30409 5.44377 10.7922V14.2034L4.41116 15.5679C3.94968 16.1775 3.8742 16.9822 4.2146 17.6673C4.55501 18.3524 5.24152 18.7782 6.00637 18.7782H18.845C19.6098 18.7782 20.2964 18.3524 20.6368 17.6673C20.9772 16.9822 20.9031 16.1775 20.4402 15.5679H20.4416ZM6.27699 16.6404L7.5788 14.9198V10.7908C7.5788 8.11879 9.7537 5.94388 12.4257 5.94388C15.0977 5.94388 17.2726 8.11879 17.2726 10.7908V14.9198L18.5744 16.6404H6.27699Z" fill="#202117"/>
</svg>
