<svg width="24" height="24" viewBox="0 0 24 24" fill="none" xmlns="http://www.w3.org/2000/svg">
<path d="M19.208 4.12821H18.7536V3.06838C18.7536 2.47863 18.2749 2 17.6852 2C17.0954 2 16.6168 2.47863 16.6168 3.06838V4.12821H8.12963V3.06838C8.12963 2.47863 7.651 2 7.06125 2C6.47151 2 5.99288 2.47863 5.99288 3.06838V4.12821H4.79345C3.25356 4.12821 2 5.38177 2 6.92165V19.2066C2 20.7464 3.25356 22 4.79345 22H19.208C20.7479 22 22.0014 20.7464 22.0014 19.2066V6.92165C22.0014 5.38177 20.7479 4.12821 19.208 4.12821ZM4.79345 6.26496H19.208C19.5698 6.26496 19.8647 6.55983 19.8647 6.92165V9.28633H4.13675V6.92165C4.13675 6.55983 4.43162 6.26496 4.79345 6.26496ZM19.208 19.8632H4.79345C4.43162 19.8632 4.13675 19.5684 4.13675 19.2066V11.4245H19.8647V19.2066C19.8647 19.5684 19.5698 19.8632 19.208 19.8632Z" fill="#202117"/>
</svg>
