<svg width="24" height="24" viewBox="0 0 24 24" fill="none" xmlns="http://www.w3.org/2000/svg">
<path d="M12.0035 2C6.48098 2 2.00354 6.47744 2.00354 12C2.00354 17.5226 6.48098 22 12.0035 22C17.5261 22 22.0035 17.5226 22.0035 12C22.0035 6.47744 17.5261 2 12.0035 2ZM12.0035 19.8787C7.65903 19.8787 4.12488 16.3445 4.12488 12C4.12488 7.65549 7.65903 4.12134 12.0035 4.12134C16.348 4.12134 19.8822 7.65549 19.8822 12C19.8822 16.3445 16.348 19.8787 12.0035 19.8787Z" fill="#202117"/>
<path d="M13.0642 11.5602V6.65988C13.0642 6.07439 12.589 5.59921 12.0035 5.59921C11.418 5.59921 10.9429 6.07439 10.9429 6.65988V12C10.9429 12.2814 11.0546 12.5516 11.254 12.7495L13.6681 15.1636C13.8746 15.3701 14.1461 15.4748 14.4176 15.4748C14.6892 15.4748 14.9607 15.3715 15.1672 15.1636C15.5815 14.7493 15.5815 14.0775 15.1672 13.6631L13.0642 11.5602Z" fill="#202117"/>
</svg>
