<svg width="24" height="24" viewBox="0 0 24 24" fill="none" xmlns="http://www.w3.org/2000/svg">
<path d="M17.5699 19.3042H6.45358C6.19399 19.3042 5.98355 19.5181 5.98355 19.7819V20.5223C5.98355 20.7861 6.19399 21 6.45358 21H17.5699C17.8295 21 18.04 20.7861 18.04 20.5223V19.7819C18.04 19.5181 17.8295 19.3042 17.5699 19.3042Z" fill="#202117"/>
<path d="M20.0141 5.03331C18.9213 5.03331 18.0282 5.92898 18.0282 7.05154C18.0282 7.62476 18.275 8.15022 18.651 8.50849L16.4888 10.9327C15.866 11.6254 14.738 11.4224 14.3972 10.5506L12.611 5.92898C13.4101 5.66625 13.9859 4.91389 13.9859 4.01823C13.9859 2.90761 13.1046 2 12 2C10.8954 2 10.0141 2.89566 10.0141 4.01823C10.0141 4.91389 10.5899 5.66625 11.389 5.92898L9.60282 10.5506C9.26204 11.4224 8.13396 11.6373 7.51116 10.9327L5.349 8.50849C5.73678 8.13828 5.9718 7.62476 5.9718 7.05154C5.9718 5.94092 5.09048 5.03331 3.9859 5.03331C2.88132 5.03331 2 5.92898 2 7.05154C2 8.1741 2.88132 9.06977 3.9859 9.06977C4.0564 9.06977 4.12691 9.05783 4.19741 9.04588L5.79553 17.9667C5.87779 18.4563 6.30082 18.8146 6.79436 18.8146H17.2056C17.6992 18.8146 18.1222 18.4563 18.2045 17.9667L19.8026 9.04588C19.8731 9.04588 19.9436 9.06977 20.0141 9.06977C21.1069 9.06977 22 8.1741 22 7.05154C22 5.92898 21.1187 5.03331 20.0141 5.03331Z" fill="#202117"/>
</svg>
