<svg width="24" height="24" viewBox="0 0 24 24" fill="none" xmlns="http://www.w3.org/2000/svg">
<path d="M21.1432 10.967H20.5763V8.5775C20.5763 8.29126 20.3414 8.05932 20.0517 8.05932H17.5959V5H13.1093V11.1514H10.893V5.51818C10.893 5.23194 10.6582 5 10.3684 5H6.93213C6.64235 5 6.40754 5.23194 6.40754 5.51818V8.05932H3.95063C3.66084 8.05932 3.42604 8.29126 3.42604 8.5775V11.1073H2.85906C2.38486 11.1073 2 11.4875 2 11.9559C2 12.4243 2.38486 12.8044 2.85906 12.8044H3.42604V15.194C3.42604 15.4802 3.66084 15.7121 3.95063 15.7121H6.40639V18.4818C6.40639 18.7681 6.6412 19 6.93099 19H10.3672C10.657 19 10.8918 18.7681 10.8918 18.4818V12.8486H13.1082V18.4818C13.1082 18.7681 13.343 19 13.6328 19H17.069C17.3588 19 17.5936 18.7681 17.5936 18.4818V15.7121H20.0494C20.3392 15.7121 20.574 15.4802 20.574 15.194V12.6641H21.1409C21.6151 12.6641 22 12.284 22 11.8156C22 11.3472 21.6151 10.967 21.1409 10.967H21.1432ZM5.66875 14.015C5.37896 14.015 5.14415 13.7831 5.14415 13.4968V10.2746C5.14415 9.98836 5.37896 9.75642 5.66875 9.75642C5.95854 9.75642 6.19335 9.98836 6.19335 10.2746V13.4968C6.19335 13.7831 5.95854 14.015 5.66875 14.015ZM8.6491 17.3029C8.35931 17.3029 8.12451 17.071 8.12451 16.7847V7.21529C8.12451 6.92904 8.35931 6.69711 8.6491 6.69711C8.93889 6.69711 9.1737 6.92904 9.1737 7.21529V16.7847C9.1737 17.071 8.93889 17.3029 8.6491 17.3029ZM15.352 17.3029C15.0623 17.3029 14.8274 17.071 14.8274 16.7847V7.21529C14.8274 6.92904 15.0623 6.69711 15.352 6.69711C15.6418 6.69711 15.8766 6.92904 15.8766 7.21529V16.7847C15.8766 17.071 15.6418 17.3029 15.352 17.3029ZM18.3324 14.015C18.0426 14.015 17.8078 13.7831 17.8078 13.4968V10.2746C17.8078 9.98836 18.0426 9.75642 18.3324 9.75642C18.6222 9.75642 18.857 9.98836 18.857 10.2746V13.4968C18.857 13.7831 18.6222 14.015 18.3324 14.015Z" fill="#202117"/>
</svg>
