<svg width="24" height="24" viewBox="0 0 24 24" fill="none" xmlns="http://www.w3.org/2000/svg">
<path d="M18.2518 12.0071C17.6622 12.0071 17.1837 12.4856 17.1837 13.0752V19.8639H4.13614V6.81629H10.9234C11.513 6.81629 11.9915 6.3378 11.9915 5.74822C11.9915 5.15864 11.513 4.68015 10.9234 4.68015H3.06807C2.4785 4.68015 2 5.15864 2 5.74822V20.9319C2 21.5215 2.4785 22 3.06807 22H18.2518C18.8414 22 19.3199 21.5215 19.3199 20.9319V13.0752C19.3199 12.4856 18.8414 12.0071 18.2518 12.0071Z" fill="#202117"/>
<path d="M21.2025 2.79892C20.687 2.2834 20.0034 2 19.2743 2C18.5451 2 17.8616 2.2834 17.3461 2.79892L9.36827 10.7767C8.96668 11.1783 8.69467 11.6839 8.57932 12.2392L8.07804 14.6602C8.00541 15.012 8.11364 15.378 8.36856 15.6329C8.57078 15.8351 8.84278 15.9462 9.12333 15.9462C9.19596 15.9462 9.26858 15.939 9.33979 15.9234L11.7608 15.4221C12.3161 15.3067 12.8217 15.0347 13.2233 14.6332L21.2011 6.65537C21.7166 6.13985 22 5.45628 22 4.72714C22 3.99801 21.7166 3.31444 21.2011 2.79892H21.2025ZM19.6915 5.1444L11.7138 13.1222C11.6084 13.2276 11.4745 13.3002 11.3293 13.3301L10.5004 13.5024L10.6727 12.6736C10.7026 12.5269 10.7753 12.3945 10.8807 12.2891L18.857 4.30846C18.9681 4.19738 19.1162 4.13614 19.2743 4.13614C19.4324 4.13614 19.5805 4.19738 19.6915 4.30846C19.8026 4.41954 19.8639 4.56764 19.8639 4.72572C19.8639 4.88379 19.8026 5.0319 19.6915 5.14298V5.1444Z" fill="#202117"/>
</svg>
