<svg width="24" height="24" viewBox="0 0 24 24" fill="none" xmlns="http://www.w3.org/2000/svg">
<path d="M9.07533 22C9.07533 22 1.1291 19.3107 6.18069 9.0041C6.18069 9.0041 6.09248 12.5949 8.16123 13.7059C6.30898 10.5051 6.28974 4.275 11.8545 2C11.8545 2 9.9365 5.75626 16.3512 10.0467C22.7659 14.3372 17.9228 21.9044 14.6353 22C14.6353 22 17.6967 19.2894 15.0538 15.2327C15.0538 15.2327 15.2431 17.4394 14.0868 18.0389C14.0868 18.0389 15.126 14.0428 12.0277 11.6949C12.0277 11.6949 12.7782 13.8 9.89641 15.5681C7.0146 17.3362 7.47806 20.6219 9.07372 22H9.07533Z" fill="#202117"/>
</svg>
