<svg width="24" height="24" viewBox="0 0 24 24" fill="none" xmlns="http://www.w3.org/2000/svg">
<path d="M12 2C6.47744 2 2 6.47744 2 12C2 17.5226 6.47744 22 12 22C17.5226 22 22 17.5226 22 12C22 6.47744 17.5226 2 12 2ZM18.9651 8.32301H16.1465C15.9952 7.18173 15.7689 6.04752 15.4705 4.92886C16.9611 5.66426 18.1872 6.85646 18.9637 8.32301H18.9651ZM19.8787 12C19.8787 12.6831 19.791 13.3463 19.6269 13.9799H16.295C16.3982 12.6619 16.4081 11.3381 16.3176 10.0201H19.6283C19.7924 10.6537 19.8801 11.3169 19.8801 12H19.8787ZM4.12134 12C4.12134 11.3169 4.20902 10.6537 4.37307 10.0201H7.80257C7.71206 11.3381 7.72055 12.6619 7.8252 13.9799H4.37307C4.20902 13.3463 4.12134 12.6831 4.12134 12ZM9.5053 10.0201H14.6135C14.7097 11.3381 14.7026 12.6619 14.5909 13.9799H9.52793C9.41762 12.6619 9.40914 11.3381 9.5053 10.0201ZM13.5387 4.27266L13.8187 5.31071C14.086 6.30349 14.2882 7.30901 14.4325 8.32301H9.68774C9.83199 7.31042 10.0342 6.30349 10.3015 5.31071L10.5872 4.25004C11.0454 4.1666 11.5177 4.11993 12 4.11993C12.5261 4.11993 13.0409 4.17225 13.5387 4.27125V4.27266ZM8.66384 4.86381V4.86947C8.35554 6.00651 8.12643 7.16051 7.97228 8.32301H5.03493C5.83538 6.81261 7.11243 5.59355 8.66384 4.86522V4.86381ZM5.03493 15.677H8.01188C8.16462 16.7461 8.37958 17.8096 8.66242 18.8576L8.74728 19.173C7.15769 18.4489 5.84953 17.2143 5.03493 15.677ZM10.6636 19.7627L10.3015 18.4163C10.0583 17.5127 9.86876 16.5977 9.72875 15.677H14.3915C14.25 16.5977 14.0619 17.5127 13.8187 18.4163L13.4623 19.7401C12.9885 19.8292 12.5006 19.8787 12.0014 19.8787C11.546 19.8787 11.1006 19.8376 10.665 19.7627H10.6636ZM15.3885 19.1107L15.4564 18.8576C15.7392 17.8096 15.9528 16.7461 16.1069 15.677H18.9651C18.1731 17.1704 16.9173 18.381 15.3885 19.1121V19.1107Z" fill="#202117"/>
</svg>
