<svg width="24" height="24" viewBox="0 0 24 24" fill="none" xmlns="http://www.w3.org/2000/svg">
<path d="M16.6146 5.08092C16.7306 5.08092 16.848 5.08925 16.9639 5.10728C17.6795 5.21549 18.7006 5.47491 19.3017 6.46682C19.7782 7.25202 19.8772 8.26335 19.8772 8.97503C19.8772 14.1316 14.2005 17.5609 12.0269 18.686C9.83765 17.5637 4.11851 14.1413 4.11851 9.02775C4.11851 8.32856 4.21892 7.32832 4.69693 6.5348C4.98826 6.05341 5.54547 5.38613 7.03323 5.16C7.15203 5.14197 7.27365 5.13225 7.39528 5.13225C8.72748 5.13225 10.0102 6.25873 10.4019 6.70266L12.0495 8.74751L13.6858 6.66659C14.0634 6.2185 15.305 5.08092 16.6132 5.08092M16.616 3C13.9502 3 12.0325 5.36671 12.0325 5.36671C12.0325 5.36671 10.0653 3.04994 7.39811 3.04994C7.17466 3.04994 6.94555 3.06659 6.7122 3.10127C2.76227 3.70335 2 6.8511 2 9.02636C2 16.8062 12.0325 21 12.0325 21C12.0325 21 22 16.8062 22 8.97503C22 6.74705 21.2377 3.65202 17.2892 3.05133C17.0601 3.01665 16.8352 3 16.616 3Z" fill="#202117"/>
</svg>
