<svg width="24" height="24" viewBox="0 0 24 24" fill="none" xmlns="http://www.w3.org/2000/svg">
<path d="M12 4.12134C16.3445 4.12134 19.8787 7.65549 19.8787 12C19.8787 16.3445 16.3445 19.8787 12 19.8787C7.65549 19.8787 4.12134 16.3445 4.12134 12C4.12134 7.65549 7.65549 4.12134 12 4.12134ZM12 2C6.47744 2 2 6.47744 2 12C2 17.5226 6.47744 22 12 22C17.5226 22 22 17.5226 22 12C22 6.47744 17.5226 2 12 2Z" fill="#202117"/>
<path d="M10.9464 14.2048C10.9464 13.8088 11.0115 13.4496 11.1402 13.1286C11.2688 12.8075 11.4668 12.512 11.7341 12.2418C12.0014 11.9717 12.3394 11.7129 12.7467 11.4668C13.0946 11.2505 13.376 11.0383 13.5882 10.8318C13.8017 10.6254 13.9559 10.3977 14.052 10.1516C14.1482 9.90553 14.1963 9.62268 14.1963 9.30448V9.296C14.1963 8.91699 14.1044 8.58323 13.9219 8.2919C13.7381 8.00057 13.4821 7.77288 13.1526 7.60741C12.8217 7.44195 12.4356 7.35992 11.9901 7.35992C11.5446 7.35992 11.1486 7.44477 10.8149 7.61165C10.4811 7.77995 10.2195 8.01188 10.0272 8.31028C9.83482 8.60727 9.71744 8.958 9.67642 9.35964L9.66794 9.45015H8.12785L8.13633 9.33277C8.18442 8.72041 8.35695 8.15755 8.65394 7.64418C8.95093 7.13082 9.38227 6.72069 9.94654 6.41522C10.5108 6.10833 11.2137 5.95559 12.0537 5.95559C12.8104 5.95559 13.475 6.09843 14.0492 6.3841C14.622 6.66978 15.0703 7.05728 15.3913 7.54518C15.7123 8.03451 15.8736 8.59171 15.8736 9.21539V9.22387C15.8736 9.69198 15.7972 10.1177 15.6445 10.4981C15.4917 10.8799 15.2739 11.2208 14.9911 11.5206C14.7082 11.8204 14.3759 12.0877 13.9912 12.3224C13.6122 12.5445 13.3166 12.758 13.1045 12.9617C12.891 13.1653 12.7411 13.3845 12.6548 13.6193C12.5671 13.8541 12.5247 14.1298 12.5247 14.448V15.0335H10.9478V14.2048H10.9464ZM11.061 17.7644C10.8743 17.5777 10.7795 17.3472 10.7795 17.0742C10.7795 16.8013 10.8729 16.5651 11.061 16.3799C11.2476 16.196 11.4782 16.1027 11.7511 16.1027C12.024 16.1027 12.2602 16.1946 12.4455 16.3799C12.6293 16.5651 12.7227 16.7956 12.7227 17.0742C12.7227 17.3528 12.6307 17.5763 12.4455 17.7644C12.2616 17.9511 12.0297 18.0458 11.7511 18.0458C11.4725 18.0458 11.249 17.9525 11.061 17.7644Z" fill="#202117"/>
</svg>
