<svg width="24" height="24" viewBox="0 0 24 24" fill="none" xmlns="http://www.w3.org/2000/svg">
<path d="M12.005 21.9986C9.99084 21.9986 7.56035 21.1307 5.66056 19.7318C3.30206 17.996 2.00354 15.6401 2.00354 13.0987C2.00354 11.1066 2.69232 8.76768 3.89204 6.67934C5.16374 4.46782 6.81935 2.84386 8.55118 2.10905C9.00566 1.9165 9.48272 1.98162 9.82711 2.28319C10.4368 2.81696 10.2407 3.54045 9.99225 4.45649C9.27524 7.1055 9.47284 8.14189 10.7742 8.5638C12.3141 9.06359 13.3049 7.85023 14.5357 6.08186C14.928 5.51694 15.2682 5.0299 15.6422 4.67594C15.8963 4.43525 16.8038 3.70044 17.7989 4.35597C20.3931 6.06345 22.0035 9.41471 22.0035 13.1001C22.0035 18.5326 16.0798 22 12.0021 22L12.005 21.9986ZM7.61398 5.29041C5.67891 7.1593 4.12069 10.4412 4.12069 13.0987C4.12069 15.466 5.63939 17.0814 6.9125 18.0187C8.4425 19.1457 10.4411 19.8734 12.0035 19.8734C13.566 19.8734 15.5646 19.1457 17.0946 18.0187C18.3677 17.0814 19.8864 15.466 19.8864 13.0987C19.8864 10.2826 18.7742 7.74404 16.9605 6.35936C16.7572 6.59722 16.4848 6.98799 16.2703 7.29664C15.1482 8.90785 13.271 11.605 10.1221 10.5842C8.53142 10.0688 7.61681 8.91351 7.47708 7.24284C7.42203 6.58164 7.49684 5.90488 7.61398 5.29041Z" fill="#202117"/>
</svg>
