<svg width="24" height="24" viewBox="0 0 24 24" fill="none" xmlns="http://www.w3.org/2000/svg">
<path d="M21.6781 11.4328L12.6371 3.24679C12.274 2.91774 11.728 2.91774 11.3649 3.24679L2.32266 11.4328C1.9263 11.7919 1.8905 12.4109 2.24083 12.8156C2.59245 13.2204 3.1985 13.257 3.59487 12.8992L4.64844 11.946V18.5807C4.64844 20.0981 5.85799 21.3333 7.34372 21.3333H16.657C18.1428 21.3333 19.3523 20.0981 19.3523 18.5807V11.946L20.4059 12.8992C20.5887 13.0651 20.815 13.146 21.0414 13.146C21.306 13.146 21.5694 13.035 21.7587 12.817C22.1103 12.4122 22.0732 11.7932 21.6768 11.4341L21.6781 11.4328ZM17.4344 18.5794C17.4344 19.0169 17.0854 19.3733 16.657 19.3733H7.34372C6.91539 19.3733 6.56634 19.0169 6.56634 18.5794V10.2093L12.0004 5.28775L17.4344 10.208V18.5807V18.5794Z" fill="#202117"/>
</svg>
