<svg width="24" height="24" viewBox="0 0 24 24" fill="none" xmlns="http://www.w3.org/2000/svg">
<path d="M21.6867 20.1821L18.4241 16.9195C19.6687 15.3499 20.4137 13.3659 20.4137 11.2074C20.4137 6.12261 16.2925 2 11.2077 2C6.12292 2 2.00031 6.12261 2.00031 11.2074C2.00031 16.2922 6.12292 20.4148 11.2077 20.4148C13.3662 20.4148 15.3502 19.6698 16.9198 18.4252L20.1824 21.6878C20.3896 21.895 20.6621 22 20.9345 22C21.207 22 21.4795 21.8964 21.6867 21.6878C22.1025 21.272 22.1025 20.5979 21.6867 20.1821ZM4.12902 11.2074C4.12902 7.30476 7.30365 4.12872 11.2077 4.12872C15.1118 4.12872 18.2864 7.30334 18.2864 11.2074C18.2864 15.1115 15.1118 18.2861 11.2077 18.2861C7.30365 18.2861 4.12902 15.1101 4.12902 11.2074Z" fill="#202117"/>
</svg>
