<svg width="24" height="24" viewBox="0 0 24 24" fill="none" xmlns="http://www.w3.org/2000/svg">
<path d="M9.69905 4.46076C10.3425 8.66101 13.9799 11.8897 18.357 11.8897C18.8675 11.8897 19.3752 11.8444 19.8744 11.7568C19.8772 11.836 19.8787 11.9166 19.8787 11.9958C19.8787 16.3403 16.3445 19.8744 12 19.8744C7.65549 19.8744 4.12134 16.3417 4.12134 11.9972C4.12134 9.91826 4.92462 7.95673 6.38128 6.47603C7.31749 5.52425 8.45453 4.83977 9.69905 4.46217M11.8176 2.00141C6.37845 2.099 2 6.53543 2 11.9972C2 17.4589 6.47744 21.9972 12 21.9972C17.5226 21.9972 22 17.5197 22 11.9972C22 10.9393 21.8345 9.91967 21.5305 8.96224C20.5872 9.47561 19.5067 9.76835 18.3584 9.76835C14.6927 9.76835 11.72 6.79706 11.72 3.12997C11.72 2.7453 11.7553 2.3677 11.8176 2V2.00141Z" fill="#202117"/>
</svg>
