<svg width="24" height="24" viewBox="0 0 24 24" fill="none" xmlns="http://www.w3.org/2000/svg">
<path d="M20.6587 10.6605H13.3395V3.33952C13.3395 2.60011 12.7394 2 12 2C11.2606 2 10.6605 2.60011 10.6605 3.33952V10.6605H3.33952C2.60011 10.6605 2 11.2606 2 12C2 12.7394 2.60011 13.3395 3.33952 13.3395H10.6605V20.6605C10.6605 21.3999 11.2606 22 12 22C12.7394 22 13.3395 21.3999 13.3395 20.6605V13.3395H20.6605C21.3999 13.3395 22 12.7394 22 12C22 11.2606 21.3999 10.6605 20.6605 10.6605H20.6587Z" fill="#202117"/>
</svg>
