<svg width="24" height="24" viewBox="0 0 24 24" fill="none" xmlns="http://www.w3.org/2000/svg">
<path d="M17.7049 8.64165C19.5237 8.64165 21.0035 7.1522 21.0035 5.32153C21.0035 3.49087 19.5237 2 17.7049 2C15.8861 2 14.4063 3.48945 14.4063 5.32012C14.4063 7.15079 15.8861 8.64024 17.7049 8.64024V8.64165ZM17.7049 4.12374C18.3604 4.12374 18.8936 4.66034 18.8936 5.32012C18.8936 5.9799 18.3604 6.51649 17.7049 6.51649C17.0494 6.51649 16.5163 5.9799 16.5163 5.32012C16.5163 4.66034 17.0494 4.12374 17.7049 4.12374Z" fill="#202117"/>
<path d="M19.6166 10.9112L16.5248 11.0811L14.5203 8.38539C14.5203 8.38539 14.5118 8.37689 14.509 8.37123C14.4865 8.3415 14.4626 8.31318 14.4359 8.28628C14.4289 8.2792 14.4232 8.27212 14.4162 8.26504C14.4134 8.26221 14.4106 8.25938 14.4078 8.25655C14.3782 8.22823 14.3473 8.20133 14.3149 8.17726C14.3121 8.17585 14.3107 8.17301 14.3079 8.1716L11.6578 6.17386C11.2822 5.8907 10.7659 5.8907 10.3918 6.17386L7.75008 8.1716C7.28448 8.52414 7.19023 9.18958 7.54049 9.65822C7.89074 10.1269 8.55187 10.2217 9.01747 9.86918L11.0262 8.34999L12.0868 9.14994L10.0837 11.2425C9.44368 11.9108 9.15673 12.8198 9.29739 13.7372C9.43806 14.6547 9.98102 15.4362 10.7913 15.8794L13.4611 17.3462L11.2822 20.3067C10.9347 20.7781 11.0332 21.4436 11.5016 21.7919C11.6901 21.9335 11.9109 22 12.129 22C12.4511 22 12.7704 21.8513 12.9772 21.5696L15.8777 17.6293C16.0592 17.383 16.1253 17.0687 16.0606 16.7685C15.9959 16.4684 15.8032 16.2121 15.5359 16.0648L11.8026 14.0133C11.5762 13.8887 11.4228 13.6693 11.3835 13.413C11.3441 13.1553 11.4242 12.9005 11.6043 12.7136L13.5764 10.6535L15.1758 12.8042C15.3755 13.0732 15.6892 13.2304 16.0198 13.2304C16.0395 13.2304 16.0578 13.2304 16.0774 13.2289L19.7333 13.0279C20.3157 12.9953 20.7616 12.4955 20.7292 11.9094C20.6969 11.3232 20.1975 10.8744 19.618 10.907L19.6166 10.9112Z" fill="#202117"/>
<path d="M7.77821 15.9134C6.63601 16.7218 4.61325 15.6259 4.57808 15.6061C4.07169 15.3173 3.43025 15.4957 3.14189 16.0054C2.85353 16.5151 3.03076 17.1635 3.53575 17.4538C3.62437 17.5047 5.09151 18.3302 6.73307 18.3302C7.48703 18.3302 8.27757 18.156 8.98934 17.6534C9.46619 17.3164 9.58154 16.6538 9.24675 16.1739C8.91197 15.6939 8.25366 15.5778 7.7768 15.9148L7.77821 15.9134Z" fill="#202117"/>
</svg>
