<svg width="24" height="24" viewBox="0 0 24 24" fill="none" xmlns="http://www.w3.org/2000/svg">
<path fill-rule="evenodd" clip-rule="evenodd" d="M21.281 20.7816C20.9594 21.1345 20.501 21.6371 20.3703 21.7801C19.6806 22.5363 15.3451 21.2628 13.4391 19.173L3.97789 8.7994C3.08364 7.81915 3.37237 5.41455 4.28145 5.02721C4.36561 4.9912 4.44521 4.95694 4.52047 4.92393L9.23966 10.0199C9.46317 10.265 9.82557 10.265 10.0493 10.0199L10.4402 9.59109C10.3451 9.46806 10.2486 9.35103 10.1503 9.24326C8.40995 7.33503 6.10281 4.8054 6.10281 4.8054C6.06837 4.76389 6.03484 4.72688 6.00223 4.69412C6.58882 4.12748 8.21769 2.61336 8.75684 2.74564C8.85491 2.76965 8.94682 2.82316 9.03303 2.89918C9.12358 2.83641 9.20979 2.77865 9.2903 2.72738C10.351 2.05197 11.0092 1.7654 11.5283 2.22201C12.0474 2.67862 11.6681 4.36154 12.5788 5.36004C13.4895 6.35879 14.048 6.16349 14.7605 6.09147C15.5597 6.0107 16.5591 5.9977 17.1039 6.59535C17.8782 7.44431 16.918 12.0987 18.1451 15.3855C18.7992 17.138 20.6025 19.403 21.1318 20.0467C21.2181 20.0219 21.3113 20.0382 21.4032 20.1392C21.6012 20.356 21.4625 20.5826 21.281 20.7816Z" fill="#202117"/>
<path d="M4.72581 21.3103C4.72581 20.9295 5.01465 20.6207 5.37097 20.6207H12.4677C12.8241 20.6207 13.1129 20.9295 13.1129 21.3103C13.1129 21.6912 12.8241 22 12.4677 22H5.37097C5.01465 22 4.72581 21.6912 4.72581 21.3103Z" fill="#202117"/>
<path d="M1.5 18.5517C1.5 18.1708 1.78885 17.8621 2.14516 17.8621H8.59677C8.95309 17.8621 9.24194 18.1708 9.24194 18.5517C9.24194 18.9326 8.95309 19.2414 8.59677 19.2414H2.14516C1.78885 19.2414 1.5 18.9326 1.5 18.5517Z" fill="#202117"/>
</svg>
