<svg width="24" height="24" viewBox="0 0 24 24" fill="none" xmlns="http://www.w3.org/2000/svg">
<path d="M20.629 8.87246H19.5565L20.3145 8.11304C20.8493 7.57826 20.8493 6.70725 20.3145 6.17246L17.8304 3.68841C17.571 3.42899 17.2261 3.28551 16.8594 3.28551C16.4928 3.28551 16.1478 3.42899 15.8884 3.68696L15.129 4.44493V3.37246C15.129 2.61594 14.513 2 13.7565 2H10.2435C9.48696 2 8.87101 2.61594 8.87101 3.37246V4.44493L8.11159 3.68551C7.57681 3.15072 6.7058 3.15072 6.17101 3.68551L3.68696 6.17246C3.15217 6.70725 3.15217 7.57826 3.68696 8.11304L4.44493 8.87246H3.37246C2.61594 8.87246 2 9.48841 2 10.2449V13.758C2 14.5145 2.61594 15.1304 3.37246 15.1304H4.44493L3.68551 15.8899C3.15072 16.4246 3.15072 17.2957 3.68551 17.8304L6.16957 20.3145C6.42899 20.5739 6.77391 20.7159 7.14058 20.7159C7.50725 20.7159 7.85217 20.5725 8.11159 20.313L8.87101 19.5551V20.6275C8.87101 21.3841 9.48696 22 10.2435 22H13.7565C14.513 22 15.129 21.3841 15.129 20.6275V19.5551L15.887 20.313C16.1464 20.5725 16.4913 20.7159 16.858 20.7159C17.2246 20.7159 17.5696 20.5725 17.829 20.313L20.313 17.829C20.8478 17.2942 20.8478 16.4232 20.313 15.8884L19.5551 15.129H20.6275C21.3841 15.129 22 14.513 22 13.7565V10.2435C22 9.48696 21.3841 8.87101 20.6275 8.87101L20.629 8.87246ZM20.2623 13.3928H18.671C18.1145 13.3928 17.6159 13.7246 17.4029 14.2406C17.1899 14.7551 17.3072 15.342 17.7 15.7362L18.8246 16.8609L16.858 18.8275L15.7333 17.7029C15.3391 17.3087 14.7522 17.1913 14.2377 17.4058C13.7232 17.6188 13.3899 18.1174 13.3899 18.6739V20.2652H10.6087V18.6739C10.6087 18.1174 10.2768 17.6188 9.76087 17.4058C9.24638 17.1928 8.65942 17.3087 8.26522 17.7029L7.14058 18.8275L5.17391 16.8609L6.29855 15.7362C6.69275 15.342 6.8087 14.7551 6.59565 14.2406C6.38261 13.7261 5.88406 13.3928 5.32754 13.3928H3.73913V10.6116H5.33043C5.88696 10.6116 6.38551 10.2797 6.59855 9.76377C6.81159 9.24928 6.69565 8.66232 6.30145 8.26812L5.17681 7.14348L7.14348 5.17681L8.26812 6.30145C8.66232 6.69565 9.24928 6.81159 9.76377 6.59855C10.2783 6.38551 10.6116 5.88696 10.6116 5.33043V3.74058H13.3928V5.33188C13.3928 5.88841 13.7246 6.38696 14.2406 6.6C14.7551 6.81304 15.342 6.6971 15.7362 6.3029L16.8609 5.17826L18.8275 7.14493L17.7029 8.26956C17.3087 8.66377 17.1928 9.25072 17.4058 9.76522C17.6188 10.2797 18.1174 10.613 18.6739 10.613H20.2652V13.3942L20.2623 13.3928Z" fill="#202117"/>
<path d="M12 7.68696C9.62029 7.68696 7.68406 9.62319 7.68406 12.0029C7.68406 14.3826 9.62029 16.3188 12 16.3188C14.3797 16.3188 16.3159 14.3826 16.3159 12.0029C16.3159 9.62319 14.3797 7.68696 12 7.68696ZM12 14.1435C10.8188 14.1435 9.85797 13.1826 9.85797 12.0014C9.85797 10.8203 10.8188 9.85942 12 9.85942C13.1812 9.85942 14.142 10.8203 14.142 12.0014C14.142 13.1826 13.1812 14.1435 12 14.1435Z" fill="#202117"/>
</svg>
