<svg width="24" height="24" viewBox="0 0 24 24" fill="none" xmlns="http://www.w3.org/2000/svg">
<path d="M19.2319 2.35324C19.0303 2.1291 18.7421 2 18.4398 2H4.56865C4.2663 2 3.97814 2.1291 3.77658 2.35324C3.57501 2.57881 3.47707 2.87814 3.50972 3.17889L5.44872 21.0509C5.50692 21.5914 5.96399 22 6.50765 22H16.5008C17.0444 22 17.5001 21.5914 17.5597 21.0509L19.4973 3.17889C19.5299 2.87814 19.4334 2.57881 19.2319 2.35324ZM17.2531 4.12796L16.762 8.64917C15.3978 9.15846 13.8151 9.15137 12.451 8.61654C10.7278 7.94127 8.72204 7.88169 6.94769 8.4534L6.24789 8.67896L5.75533 4.12796H17.2531ZM15.5455 19.872H7.46296L6.48352 10.841L7.60349 10.4792C8.91793 10.055 10.4013 10.0976 11.6746 10.597C12.6157 10.9658 13.6334 11.1502 14.6512 11.1502C15.2786 11.1502 15.906 11.0779 16.515 10.9389L15.5455 19.872Z" fill="#202117"/>
</svg>
